<svg width="28" height="28" viewBox="0 0 28 28" fill="none" xmlns="http://www.w3.org/2000/svg">
<path d="M24.8456 21.2875C24.8456 21.6899 24.7562 22.1035 24.5661 22.5059C24.3761 22.9083 24.1302 23.2883 23.8061 23.646C23.2583 24.2496 22.6547 24.6855 21.9729 24.965C21.3022 25.2444 20.5757 25.3897 19.7932 25.3897C18.6531 25.3897 17.4347 25.1215 16.1493 24.5738C14.8638 24.026 13.5784 23.2883 12.3041 22.3606C11.0187 21.4216 9.80029 20.3821 8.6378 19.2308C7.48649 18.0683 6.44696 16.8499 5.5192 15.5756C4.60263 14.3014 3.86489 13.0271 3.32836 11.764C2.79183 10.4898 2.52356 9.27138 2.52356 8.10889C2.52356 7.3488 2.65769 6.62225 2.92596 5.95158C3.19423 5.26974 3.61898 4.64378 4.2114 4.08489C4.92678 3.38069 5.70923 3.03418 6.53638 3.03418C6.84936 3.03418 7.16234 3.10125 7.44178 3.23538C7.7324 3.36951 7.98949 3.57071 8.19069 3.86134L10.7839 7.51647C10.9851 7.79591 11.1304 8.053 11.231 8.29891C11.3316 8.53365 11.3875 8.76838 11.3875 8.98076C11.3875 9.24902 11.3093 9.51729 11.1528 9.77438C11.0075 10.0315 10.7951 10.2997 10.5268 10.568L9.67734 11.451C9.55438 11.574 9.49849 11.7193 9.49849 11.8982C9.49849 11.9876 9.50967 12.0658 9.53203 12.1552C9.56556 12.2447 9.59909 12.3117 9.62145 12.3788C9.82265 12.7477 10.1692 13.2283 10.661 13.8096C11.164 14.3908 11.7005 14.9832 12.2818 15.5756C12.8854 16.1681 13.4666 16.7158 14.059 17.2188C14.6403 17.7106 15.1209 18.0459 15.501 18.2471C15.5568 18.2695 15.6239 18.303 15.7022 18.3366C15.7916 18.3701 15.881 18.3813 15.9816 18.3813C16.1716 18.3813 16.3169 18.3142 16.4399 18.1912L17.2894 17.3529C17.5688 17.0735 17.8371 16.8611 18.0942 16.727C18.3513 16.5705 18.6084 16.4922 18.8878 16.4922C19.1002 16.4922 19.3238 16.5369 19.5697 16.6375C19.8156 16.7381 20.0727 16.8834 20.3521 17.0735L24.052 19.7002C24.3426 19.9014 24.5438 20.1362 24.6667 20.4156C24.7785 20.6951 24.8456 20.9745 24.8456 21.2875Z" stroke="#656565" stroke-width="2.012" stroke-miterlimit="10"/>
</svg>
