<svg width="34" height="33" viewBox="0 0 34 33" fill="none" xmlns="http://www.w3.org/2000/svg">
<path d="M22.1394 16.4507C22.1394 19.1065 19.8856 21.2526 17.0965 21.2526C14.3075 21.2526 12.0537 19.1065 12.0537 16.4507C12.0537 13.7948 14.3075 11.6487 17.0965 11.6487C19.8856 11.6487 22.1394 13.7948 22.1394 16.4507Z" stroke="#232323" stroke-width="2.012" stroke-linecap="round" stroke-linejoin="round"/>
<path d="M17.0967 27.5434C22.0691 27.5434 26.7035 24.7535 29.9292 19.9247C31.1969 18.0334 31.1969 14.8544 29.9292 12.9631C26.7035 8.13433 22.0691 5.34436 17.0967 5.34436C12.1243 5.34436 7.49001 8.13433 4.26429 12.9631C2.99654 14.8544 2.99654 18.0334 4.26429 19.9247C7.49001 24.7535 12.1243 27.5434 17.0967 27.5434Z" stroke="#232323" stroke-width="2.012" stroke-linecap="round" stroke-linejoin="round"/>
</svg>
