<svg width="33" height="33" viewBox="0 0 33 33" fill="none" xmlns="http://www.w3.org/2000/svg">
<path d="M20.2983 13.0552L13.5116 19.8419C12.6398 18.9701 12.1033 17.7764 12.1033 16.4486C12.1033 13.7929 14.2493 11.6469 16.9049 11.6469C18.2328 11.6469 19.4265 12.1834 20.2983 13.0552Z" stroke="#232323" stroke-width="2.01" stroke-linecap="round" stroke-linejoin="round"/>
<path d="M24.7112 8.0926C22.364 6.32215 19.6815 5.35645 16.9051 5.35645C12.1705 5.35645 7.75781 8.14625 4.68635 12.9747C3.47922 14.8659 3.47922 18.0447 4.68635 19.9358C5.74594 21.599 6.97989 23.0341 8.32114 24.1876" stroke="#232323" stroke-width="2.01" stroke-linecap="round" stroke-linejoin="round"/>
<path d="M12.1033 26.5482C13.6323 27.192 15.2552 27.5407 16.9049 27.5407C21.6396 27.5407 26.0523 24.7509 29.1237 19.9224C30.3309 18.0312 30.3309 14.8525 29.1237 12.9613C28.6811 12.2639 28.1983 11.6067 27.702 10.9897" stroke="#232323" stroke-width="2.01" stroke-linecap="round" stroke-linejoin="round"/>
<path d="M21.6129 17.3875C21.2642 19.2786 19.7217 20.8211 17.8306 21.1698" stroke="#232323" stroke-width="2.01" stroke-linecap="round" stroke-linejoin="round"/>
<path d="M13.5118 19.8419L3.49268 29.8611" stroke="#232323" stroke-width="2.01" stroke-linecap="round" stroke-linejoin="round"/>
<path d="M30.3175 3.03607L20.2983 13.0552" stroke="#232323" stroke-width="2.01" stroke-linecap="round" stroke-linejoin="round"/>
</svg>
