<svg width="32" height="32" viewBox="0 0 32 32" fill="none" xmlns="http://www.w3.org/2000/svg">
<path d="M12 29.3334H20C26.6667 29.3334 29.3333 26.6667 29.3333 20V12C29.3333 5.33335 26.6667 2.66669 20 2.66669H12C5.33333 2.66669 2.66666 5.33335 2.66666 12V20C2.66666 26.6667 5.33333 29.3334 12 29.3334Z" stroke="white" stroke-width="2.3" stroke-linecap="round" stroke-linejoin="round"/>
<path d="M20.6667 13C21.7712 13 22.6667 12.1046 22.6667 11C22.6667 9.89543 21.7712 9 20.6667 9C19.5621 9 18.6667 9.89543 18.6667 11C18.6667 12.1046 19.5621 13 20.6667 13Z" stroke="white" stroke-width="2.3" stroke-miterlimit="10" stroke-linecap="round" stroke-linejoin="round"/>
<path d="M11.3333 13C12.4379 13 13.3333 12.1046 13.3333 11C13.3333 9.89543 12.4379 9 11.3333 9C10.2288 9 9.33333 9.89543 9.33333 11C9.33333 12.1046 10.2288 13 11.3333 13Z" stroke="white" stroke-width="2.3" stroke-miterlimit="10" stroke-linecap="round" stroke-linejoin="round"/>
<path d="M11.2 17.7333H20.8C21.4667 17.7333 22 18.2667 22 18.9333C22 22.2533 19.32 24.9333 16 24.9333C12.68 24.9333 10 22.2533 10 18.9333C10 18.2667 10.5333 17.7333 11.2 17.7333Z" stroke="white" stroke-width="2.3" stroke-miterlimit="10" stroke-linecap="round" stroke-linejoin="round"/>
</svg>
