<svg width="33" height="33" viewBox="0 0 33 33" fill="none" xmlns="http://www.w3.org/2000/svg">
<path d="M26.545 20.3806C23.7818 23.1304 19.8249 23.9754 16.3509 22.8889L10.0332 29.1932C9.57712 29.6626 8.67843 29.9443 8.03459 29.8504L5.11048 29.448C4.14472 29.3139 3.24603 28.4018 3.09848 27.436L2.69608 24.5119C2.60219 23.8681 2.9107 22.9694 3.35334 22.5133L9.6576 16.2091C8.58454 12.7216 9.41616 8.76467 12.1793 6.01494C16.1362 2.05801 22.5612 2.05801 26.5316 6.01494C30.5019 9.97188 30.5019 16.4237 26.545 20.3806Z" stroke="#ED5370" stroke-width="2.012" stroke-miterlimit="10" stroke-linecap="round" stroke-linejoin="round"/>
<path d="M9.24182 23.8145L12.3269 26.8996" stroke="#ED5370" stroke-width="2.012" stroke-miterlimit="10" stroke-linecap="round" stroke-linejoin="round"/>
<path d="M19.4494 15.1093C20.5606 15.1093 21.4614 14.2085 21.4614 13.0973C21.4614 11.9861 20.5606 11.0853 19.4494 11.0853C18.3382 11.0853 17.4374 11.9861 17.4374 13.0973C17.4374 14.2085 18.3382 15.1093 19.4494 15.1093Z" stroke="#ED5370" stroke-width="2.012" stroke-linecap="round" stroke-linejoin="round"/>
</svg>
