<svg width="33" height="33" viewBox="0 0 33 33" fill="none" xmlns="http://www.w3.org/2000/svg">
<path d="M24.6612 9.80129C24.5807 9.78788 24.4868 9.78788 24.4063 9.80129C22.5553 9.73422 21.0798 8.21851 21.0798 6.34065C21.0798 4.42254 22.6224 2.88 24.5405 2.88C26.4586 2.88 28.0011 4.43595 28.0011 6.34065C27.9877 8.21851 26.5122 9.73422 24.6612 9.80129Z" stroke="#232323" stroke-width="2.012" stroke-linecap="round" stroke-linejoin="round"/>
<path d="M23.2797 19.5663C25.1174 19.8749 27.1428 19.5529 28.5646 18.6006C30.4559 17.3397 30.4559 15.2741 28.5646 14.0132C27.1294 13.0609 25.0771 12.739 23.2395 13.0609" stroke="#232323" stroke-width="2.012" stroke-linecap="round" stroke-linejoin="round"/>
<path d="M8.52474 9.80129C8.60522 9.78788 8.69911 9.78788 8.77959 9.80129C10.6306 9.73422 12.1061 8.21851 12.1061 6.34065C12.1061 4.42254 10.5636 2.88 8.64546 2.88C6.72735 2.88 5.18481 4.43595 5.18481 6.34065C5.19823 8.21851 6.6737 9.73422 8.52474 9.80129Z" stroke="#232323" stroke-width="2.012" stroke-linecap="round" stroke-linejoin="round"/>
<path d="M9.90644 19.5663C8.06881 19.8749 6.0434 19.5529 4.62158 18.6006C2.73031 17.3397 2.73031 15.2741 4.62158 14.0132C6.05681 13.0609 8.10905 12.739 9.94667 13.0609" stroke="#232323" stroke-width="2.012" stroke-linecap="round" stroke-linejoin="round"/>
<path d="M16.6131 19.8211C16.5326 19.8077 16.4387 19.8077 16.3582 19.8211C14.5072 19.754 13.0317 18.2383 13.0317 16.3604C13.0317 14.4423 14.5743 12.8998 16.4924 12.8998C18.4105 12.8998 19.953 14.4557 19.953 16.3604C19.9396 18.2383 18.4641 19.7674 16.6131 19.8211Z" stroke="#232323" stroke-width="2.012" stroke-linecap="round" stroke-linejoin="round"/>
<path d="M12.7097 24.0462C10.8184 25.3071 10.8184 27.3727 12.7097 28.6336C14.8559 30.0688 18.3701 30.0688 20.5163 28.6336C22.4076 27.3727 22.4076 25.3071 20.5163 24.0462C18.3836 22.6244 14.8559 22.6244 12.7097 24.0462Z" stroke="#232323" stroke-width="2.012" stroke-linecap="round" stroke-linejoin="round"/>
</svg>
