<svg width="33" height="33" viewBox="0 0 33 33" fill="none" xmlns="http://www.w3.org/2000/svg">
<path d="M29.4674 24.7477C29.4674 25.2306 29.3601 25.7268 29.1321 26.2097C28.9041 26.6925 28.609 27.1485 28.22 27.5777C27.5628 28.302 26.8385 28.8251 26.0204 29.1604C25.2156 29.4957 24.3438 29.6701 23.4049 29.6701C22.0369 29.6701 20.5749 29.3482 19.0325 28.691C17.49 28.0338 15.9476 27.1485 14.4186 26.0353C12.8761 24.9087 11.4142 23.6613 10.0193 22.2798C8.63777 20.8849 7.3904 19.4229 6.27717 17.8939C5.17734 16.3649 4.29212 14.8359 3.64832 13.3203C3.00452 11.7912 2.68262 10.3293 2.68262 8.93437C2.68262 8.02232 2.84357 7.15051 3.16547 6.34576C3.48737 5.52759 3.99704 4.77649 4.7079 4.10587C5.5663 3.26088 6.50518 2.84509 7.4977 2.84509C7.87325 2.84509 8.2488 2.92557 8.58412 3.08652C8.93284 3.24747 9.24133 3.48889 9.48275 3.83762L12.5945 8.22351C12.8359 8.55882 13.0102 8.86731 13.131 9.16238C13.2517 9.44404 13.3187 9.72571 13.3187 9.98054C13.3187 10.3024 13.2248 10.6243 13.0371 10.9328C12.8627 11.2413 12.6079 11.5632 12.286 11.8851L11.2666 12.9447C11.1191 13.0922 11.052 13.2666 11.052 13.4812C11.052 13.5885 11.0654 13.6824 11.0923 13.7897C11.1325 13.897 11.1727 13.9775 11.1996 14.0579C11.441 14.5006 11.8568 15.0773 12.4469 15.7747C13.0505 16.4722 13.6943 17.1831 14.3917 17.8939C15.116 18.6048 15.8135 19.262 16.5243 19.8656C17.2218 20.4557 17.7985 20.8581 18.2545 21.0995C18.3216 21.1263 18.4021 21.1666 18.496 21.2068C18.6033 21.247 18.7106 21.2605 18.8313 21.2605C19.0593 21.2605 19.2336 21.18 19.3812 21.0324L20.4005 20.0265C20.7358 19.6912 21.0577 19.4364 21.3662 19.2754C21.6747 19.0876 21.9832 18.9937 22.3185 18.9937C22.5734 18.9937 22.8416 19.0474 23.1367 19.1681C23.4318 19.2888 23.7402 19.4632 24.0756 19.6912L28.5151 22.8431C28.8638 23.0846 29.1052 23.3662 29.2528 23.7015C29.3869 24.0368 29.4674 24.3722 29.4674 24.7477Z" stroke="#ED5370" stroke-width="2.1" stroke-miterlimit="10"/>
</svg>
