<svg width="32" height="32" viewBox="0 0 32 32" fill="none" xmlns="http://www.w3.org/2000/svg">
<path d="M12 29.3334H20C26.6667 29.3334 29.3333 26.6667 29.3333 20V12C29.3333 5.33335 26.6667 2.66669 20 2.66669H12C5.33334 2.66669 2.66667 5.33335 2.66667 12V20C2.66667 26.6667 5.33334 29.3334 12 29.3334Z" stroke="#232323" stroke-width="2.3" stroke-linecap="round" stroke-linejoin="round"/>
<path d="M9.33333 11.6667C10.6667 10.3334 12.84 10.3334 14.1867 11.6667" stroke="#232323" stroke-width="2.3" stroke-miterlimit="10" stroke-linecap="round" stroke-linejoin="round"/>
<path d="M17.8133 11.6667C19.1467 10.3334 21.32 10.3334 22.6667 11.6667" stroke="#232323" stroke-width="2.3" stroke-miterlimit="10" stroke-linecap="round" stroke-linejoin="round"/>
<path d="M11.2 23.6H20.8C21.4667 23.6 22 23.0667 22 22.4C22 19.08 19.32 16.4 16 16.4C12.68 16.4 10 19.08 10 22.4C10 23.0667 10.5333 23.6 11.2 23.6Z" stroke="#232323" stroke-width="2.3" stroke-miterlimit="10" stroke-linecap="round" stroke-linejoin="round"/>
</svg>
