<svg width="38" height="38" viewBox="0 0 38 38" fill="none" xmlns="http://www.w3.org/2000/svg">
<g clip-path="url(#clip0_2160_141986)">
<path d="M18.8567 20.8932C19.829 20.8932 20.6172 20.105 20.6172 19.1327C20.6172 18.1604 19.829 17.3722 18.8567 17.3722C17.8844 17.3722 17.0962 18.1604 17.0962 19.1327C17.0962 20.105 17.8844 20.8932 18.8567 20.8932Z" fill="#232323"/>
<path d="M28.8359 20.8932C29.8082 20.8932 30.5964 20.105 30.5964 19.1327C30.5964 18.1604 29.8082 17.3722 28.8359 17.3722C27.8636 17.3722 27.0754 18.1604 27.0754 19.1327C27.0754 20.105 27.8636 20.8932 28.8359 20.8932Z" fill="#232323"/>
<path d="M8.88111 20.8932C9.8534 20.8932 10.6416 20.105 10.6416 19.1327C10.6416 18.1604 9.8534 17.3722 8.88111 17.3722C7.90881 17.3722 7.12061 18.1604 7.12061 19.1327C7.12061 20.105 7.90881 20.8932 8.88111 20.8932Z" fill="#232323"/>
</g>
<defs>
<clipPath id="clip0_2160_141986">
<rect width="37.5573" height="37.5573" fill="white" transform="translate(0.0771484 0.354736)"/>
</clipPath>
</defs>
</svg>
