<svg width="35" height="34" viewBox="0 0 35 34" fill="none" xmlns="http://www.w3.org/2000/svg">
<path d="M29.685 8.90785C25.2184 8.46521 20.7249 8.23718 16.2449 8.23718C13.589 8.23718 10.9332 8.37132 8.27734 8.63958L5.54102 8.90785" stroke="#ED5370" stroke-width="2.012" stroke-linecap="round" stroke-linejoin="round"/>
<path d="M12.9185 7.5531L13.2136 5.79595C13.4282 4.52168 13.5891 3.56934 15.856 3.56934H19.3703C21.6371 3.56934 21.8115 4.57534 22.0127 5.80936L22.3078 7.5531" stroke="#ED5370" stroke-width="2.012" stroke-linecap="round" stroke-linejoin="round"/>
<path d="M26.8011 13.1465L25.9292 26.6537C25.7817 28.7596 25.6609 30.396 21.9186 30.396H13.3073C9.56494 30.396 9.44422 28.7596 9.29667 26.6537L8.4248 13.1465" stroke="#ED5370" stroke-width="2.012" stroke-linecap="round" stroke-linejoin="round"/>
<path d="M15.373 23.0187H19.8397" stroke="#ED5370" stroke-width="2.012" stroke-linecap="round" stroke-linejoin="round"/>
<path d="M14.2598 17.6534H20.9664" stroke="#ED5370" stroke-width="2.012" stroke-linecap="round" stroke-linejoin="round"/>
<path opacity="0.01" fill-rule="evenodd" clip-rule="evenodd" d="M33.7091 0.886719V33.0787H1.51709V0.886719H33.7091Z" stroke="#ED5370" stroke-width="1.54253"/>
</svg>
