<svg width="81" height="82" viewBox="0 0 81 82" fill="none" xmlns="http://www.w3.org/2000/svg">
<path opacity="0.4" d="M44.8312 7.26404C46.4072 7.26404 47.715 8.5383 47.715 10.1479V71.4804C47.715 73.0564 46.4408 74.3642 44.8312 74.3642C25.0801 74.3642 11.2979 60.582 11.2979 40.8309C11.2979 21.0798 25.1136 7.26404 44.8312 7.26404Z" fill="#ED5370"/>
<path d="M69.3116 39.2549L59.7881 29.6979C58.8157 28.7254 57.2061 28.7254 56.2336 29.6979C55.2611 30.6703 55.2611 32.2799 56.2336 33.2524L61.4648 38.4836H29.3734C27.9985 38.4836 26.8584 39.6237 26.8584 40.9986C26.8584 42.3735 27.9985 43.5136 29.3734 43.5136H61.4648L56.2336 48.7448C55.2611 49.7173 55.2611 51.3269 56.2336 52.2993C56.7366 52.8023 57.3737 53.0371 58.0109 53.0371C58.648 53.0371 59.2851 52.8023 59.7881 52.2993L69.3116 42.7423C70.2841 41.8034 70.2841 40.2273 69.3116 39.2549Z" fill="#ED5370"/>
</svg>
