<svg width="81" height="82" viewBox="0 0 81 82" fill="none" xmlns="http://www.w3.org/2000/svg">
<path d="M71.0885 18.0953C65.6896 17.5588 60.2908 17.1564 54.8584 16.8546V16.821L54.1206 12.4617C53.6176 9.37662 52.8799 4.74902 45.0331 4.74902H36.2474C28.4341 4.74902 27.6964 9.17542 27.1598 12.4282L26.4557 16.7204C23.3371 16.9216 20.2185 17.1228 17.0999 17.4246L10.2591 18.0953C8.85065 18.2294 7.84465 19.4702 7.97879 20.845C8.11292 22.2199 9.32012 23.2259 10.7285 23.0918L17.5693 22.4211C35.1408 20.6774 52.8464 21.348 70.619 23.1253C70.7196 23.1253 70.7867 23.1253 70.8873 23.1253C72.1616 23.1253 73.2682 22.1528 73.4023 20.845C73.5029 19.4702 72.4969 18.2294 71.0885 18.0953Z" fill="#ED5370"/>
<path opacity="0.3991" d="M64.9183 27.8535C64.1135 27.0151 63.0069 26.5457 61.8668 26.5457H19.4806C18.3405 26.5457 17.2004 27.0151 16.4291 27.8535C15.6579 28.6918 15.2219 29.8319 15.289 31.0056L17.3681 65.4108C17.7369 70.5079 18.2064 76.8792 29.9095 76.8792H51.4379C63.141 76.8792 63.6105 70.5414 63.9794 65.4108L66.0584 31.0391C66.1255 29.8319 65.6896 28.6918 64.9183 27.8535Z" fill="#ED5370"/>
<path fill-rule="evenodd" clip-rule="evenodd" d="M32.5586 57.5641C32.5586 56.1751 33.6846 55.0491 35.0736 55.0491H46.2402C47.6292 55.0491 48.7552 56.1751 48.7552 57.5641C48.7552 58.9531 47.6292 60.0791 46.2402 60.0791H35.0736C33.6846 60.0791 32.5586 58.9531 32.5586 57.5641Z" fill="#ED5370"/>
<path fill-rule="evenodd" clip-rule="evenodd" d="M29.7754 44.1507C29.7754 42.7617 30.9014 41.6357 32.2904 41.6357H49.0571C50.4461 41.6357 51.5721 42.7617 51.5721 44.1507C51.5721 45.5397 50.4461 46.6657 49.0571 46.6657H32.2904C30.9014 46.6657 29.7754 45.5397 29.7754 44.1507Z" fill="#ED5370"/>
</svg>
