<svg width="33" height="33" viewBox="0 0 33 33" fill="none" xmlns="http://www.w3.org/2000/svg">
<path d="M28.7365 12.0406V21.2153C28.7365 22.7176 27.9317 24.1126 26.6306 24.8772L18.6631 29.478C17.362 30.2291 15.7524 30.2291 14.4379 29.478L6.4704 24.8772C5.1693 24.126 4.3645 22.731 4.3645 21.2153V12.0406C4.3645 10.5383 5.1693 9.14328 6.4704 8.37872L14.4379 3.77796C15.739 3.02681 17.3486 3.02681 18.6631 3.77796L26.6306 8.37872C27.9317 9.14328 28.7365 10.5249 28.7365 12.0406Z" stroke="#ED5370" stroke-width="2.012" stroke-linecap="round" stroke-linejoin="round"/>
<path d="M16.5574 15.2867C18.2835 15.2867 19.6827 13.8874 19.6827 12.1614C19.6827 10.4353 18.2835 9.03613 16.5574 9.03613C14.8314 9.03613 13.4321 10.4353 13.4321 12.1614C13.4321 13.8874 14.8314 15.2867 16.5574 15.2867Z" stroke="#ED5370" stroke-width="2.012" stroke-linecap="round" stroke-linejoin="round"/>
<path d="M21.9228 22.8788C21.9228 20.4644 19.5218 18.5061 16.5575 18.5061C13.5931 18.5061 11.1921 20.4644 11.1921 22.8788" stroke="#ED5370" stroke-width="2.012" stroke-linecap="round" stroke-linejoin="round"/>
</svg>
