<svg width="38" height="39" viewBox="0 0 38 39" fill="none" xmlns="http://www.w3.org/2000/svg">
<path d="M28.2211 20.965V13.1406C28.2211 7.96077 24.0115 3.75122 18.8317 3.75122C13.6519 3.75122 9.44238 7.96077 9.44238 13.1406V20.965C9.44238 26.1448 13.6519 30.3543 18.8317 30.3543C24.0115 30.3543 28.2211 26.1448 28.2211 20.965Z" stroke="white" stroke-width="1.54253" stroke-linecap="round" stroke-linejoin="round"/>
<path d="M4.74805 17.8352V20.965C4.74805 28.7425 11.0545 35.049 18.832 35.049C26.6095 35.049 32.916 28.7425 32.916 20.965V17.8352" stroke="white" stroke-width="1.54253" stroke-linecap="round" stroke-linejoin="round"/>
<path d="M14.3096 12.3266C17.0951 11.3094 20.131 11.3094 22.9165 12.3266" stroke="white" stroke-width="1.54253" stroke-linecap="round" stroke-linejoin="round"/>
<path d="M15.749 17.0213C17.6269 16.5049 19.6143 16.5049 21.4922 17.0213" stroke="white" stroke-width="1.54253" stroke-linecap="round" stroke-linejoin="round"/>
</svg>
