<svg width="33" height="33" viewBox="0 0 33 33" fill="none" xmlns="http://www.w3.org/2000/svg">
<path d="M25.4687 22.9318L25.9918 27.1704C26.1259 28.2837 24.9321 29.0616 23.9798 28.4849L18.3596 25.1449C17.7426 25.1449 17.139 25.1047 16.5488 25.0243C17.5414 23.8573 18.1316 22.3818 18.1316 20.7856C18.1316 16.9762 14.8319 13.8912 10.7542 13.8912C9.1983 13.8912 7.76308 14.3338 6.56929 15.1118C6.52905 14.7765 6.51562 14.4411 6.51562 14.0924C6.51562 7.9893 11.8139 3.03979 18.3596 3.03979C24.9053 3.03979 30.2036 7.9893 30.2036 14.0924C30.2036 17.714 28.3391 20.9198 25.4687 22.9318Z" stroke="#232323" stroke-width="2.012" stroke-linecap="round" stroke-linejoin="round"/>
<path d="M18.1316 20.7857C18.1316 22.3819 17.5414 23.8574 16.5489 25.0244C15.2209 26.634 13.115 27.6668 10.7543 27.6668L7.25341 29.7458C6.66322 30.108 5.91207 29.6117 5.99255 28.9277L6.32788 26.2853C4.5305 25.0378 3.37695 23.0392 3.37695 20.7857C3.37695 18.425 4.63781 16.346 6.56933 15.1119C7.76312 14.334 9.19834 13.8914 10.7543 13.8914C14.8319 13.8914 18.1316 16.9764 18.1316 20.7857Z" stroke="#232323" stroke-width="2.012" stroke-linecap="round" stroke-linejoin="round"/>
</svg>
