<svg width="33" height="33" viewBox="0 0 33 33" fill="none" xmlns="http://www.w3.org/2000/svg">
<path d="M25.388 24.3115L21.6055 28.0941" stroke="#ED5370" stroke-width="2.012" stroke-linecap="round" stroke-linejoin="round"/>
<path d="M25.388 28.0941L21.6055 24.3115" stroke="#ED5370" stroke-width="2.012" stroke-linecap="round" stroke-linejoin="round"/>
<path d="M17.0041 14.6271C16.87 14.6137 16.709 14.6137 16.5615 14.6271C13.3691 14.5198 10.834 11.9042 10.834 8.68501C10.834 5.39875 13.4898 2.72949 16.7895 2.72949C20.0758 2.72949 22.745 5.39875 22.745 8.68501C22.7316 11.9042 20.1965 14.5198 17.0041 14.6271Z" stroke="#ED5370" stroke-width="2.012" stroke-linecap="round" stroke-linejoin="round"/>
<path d="M16.7894 29.301C14.3481 29.301 11.9203 28.684 10.0693 27.45C6.82326 25.277 6.82326 21.7359 10.0693 19.5764C13.758 17.1083 19.8074 17.1083 23.496 19.5764" stroke="#ED5370" stroke-width="2.012" stroke-linecap="round" stroke-linejoin="round"/>
</svg>
