<svg width="28" height="28" viewBox="0 0 28 28" fill="none" xmlns="http://www.w3.org/2000/svg">
<path d="M18.7192 15.27V19.9646C18.7192 23.8769 17.1543 25.4417 13.2421 25.4417H8.54743C4.6352 25.4417 3.07031 23.8769 3.07031 19.9646V15.27C3.07031 11.3577 4.6352 9.79285 8.54743 9.79285H13.2421C17.1543 9.79285 18.7192 11.3577 18.7192 15.27Z" stroke="white" stroke-width="2.012" stroke-linecap="round" stroke-linejoin="round"/>
<path d="M25.4262 8.56329V13.258C25.4262 17.1702 23.8613 18.7351 19.9491 18.7351H18.7196V15.27C18.7196 11.3577 17.1547 9.79285 13.2425 9.79285H9.77734V8.56329C9.77734 4.65107 11.3422 3.08618 15.2545 3.08618H19.9491C23.8613 3.08618 25.4262 4.65107 25.4262 8.56329Z" stroke="white" stroke-width="2.012" stroke-linecap="round" stroke-linejoin="round"/>
</svg>
